<svg id="visual" viewBox="0 0 900 600" width="900" height="600" xmlns="http://www.w3.org/2000/svg" xmlns:xlink="http://www.w3.org/1999/xlink" version="1.1"><path d="M0 479L21.5 473C43 467 86 455 128.8 454.8C171.7 454.7 214.3 466.3 257.2 467.3C300 468.3 343 458.7 385.8 457.3C428.7 456 471.3 463 514.2 462.7C557 462.3 600 454.7 642.8 456C685.7 457.3 728.3 467.7 771.2 468C814 468.3 857 458.7 878.5 453.8L900 449L900 601L878.5 601C857 601 814 601 771.2 601C728.3 601 685.7 601 642.8 601C600 601 557 601 514.2 601C471.3 601 428.7 601 385.8 601C343 601 300 601 257.2 601C214.3 601 171.7 601 128.8 601C86 601 43 601 21.5 601L0 601Z" fill="#ff8810"></path><path d="M0 505L21.5 501.8C43 498.7 86 492.3 128.8 489.3C171.7 486.3 214.3 486.7 257.2 489.3C300 492 343 497 385.8 496.2C428.7 495.3 471.3 488.7 514.2 486.8C557 485 600 488 642.8 490.2C685.7 492.3 728.3 493.7 771.2 496.2C814 498.7 857 502.3 878.5 504.2L900 506L900 601L878.5 601C857 601 814 601 771.2 601C728.3 601 685.7 601 642.8 601C600 601 557 601 514.2 601C471.3 601 428.7 601 385.8 601C343 601 300 601 257.2 601C214.3 601 171.7 601 128.8 601C86 601 43 601 21.5 601L0 601Z" fill="#ff7b14"></path><path d="M0 500L21.5 499.7C43 499.3 86 498.7 128.8 502.8C171.7 507 214.3 516 257.2 519.7C300 523.3 343 521.7 385.8 517.8C428.7 514 471.3 508 514.2 510C557 512 600 522 642.8 526.2C685.7 530.3 728.3 528.7 771.2 524C814 519.3 857 511.7 878.5 507.8L900 504L900 601L878.5 601C857 601 814 601 771.2 601C728.3 601 685.7 601 642.8 601C600 601 557 601 514.2 601C471.3 601 428.7 601 385.8 601C343 601 300 601 257.2 601C214.3 601 171.7 601 128.8 601C86 601 43 601 21.5 601L0 601Z" fill="#ff6e19"></path><path d="M0 553L21.5 550.7C43 548.3 86 543.7 128.8 544.3C171.7 545 214.3 551 257.2 552.3C300 553.7 343 550.3 385.8 548.3C428.7 546.3 471.3 545.7 514.2 545.7C557 545.7 600 546.3 642.8 545.7C685.7 545 728.3 543 771.2 541.3C814 539.7 857 538.3 878.5 537.7L900 537L900 601L878.5 601C857 601 814 601 771.2 601C728.3 601 685.7 601 642.8 601C600 601 557 601 514.2 601C471.3 601 428.7 601 385.8 601C343 601 300 601 257.2 601C214.3 601 171.7 601 128.8 601C86 601 43 601 21.5 601L0 601Z" fill="#ff601e"></path><path d="M0 567L21.5 567.8C43 568.7 86 570.3 128.8 569.7C171.7 569 214.3 566 257.2 567C300 568 343 573 385.8 571.8C428.7 570.7 471.3 563.3 514.2 559.7C557 556 600 556 642.8 555.8C685.7 555.7 728.3 555.3 771.2 559.5C814 563.7 857 572.3 878.5 576.7L900 581L900 601L878.5 601C857 601 814 601 771.2 601C728.3 601 685.7 601 642.8 601C600 601 557 601 514.2 601C471.3 601 428.7 601 385.8 601C343 601 300 601 257.2 601C214.3 601 171.7 601 128.8 601C86 601 43 601 21.5 601L0 601Z" fill="#ff5024"></path></svg>