<svg id="visual" viewBox="0 0 900 600" width="900" height="600" xmlns="http://www.w3.org/2000/svg" xmlns:xlink="http://www.w3.org/1999/xlink" version="1.1"><path d="M0 478L12.5 472.5C25 467 50 456 75 456.3C100 456.7 125 468.3 150 472C175 475.7 200 471.3 225 467C250 462.7 275 458.3 300 460.3C325 462.3 350 470.7 375 472.7C400 474.7 425 470.3 450 467.7C475 465 500 464 525 461.8C550 459.7 575 456.3 600 455.2C625 454 650 455 675 454.7C700 454.3 725 452.7 750 456.7C775 460.7 800 470.3 825 471.3C850 472.3 875 464.7 887.5 460.8L900 457L900 601L887.5 601C875 601 850 601 825 601C800 601 775 601 750 601C725 601 700 601 675 601C650 601 625 601 600 601C575 601 550 601 525 601C500 601 475 601 450 601C425 601 400 601 375 601C350 601 325 601 300 601C275 601 250 601 225 601C200 601 175 601 150 601C125 601 100 601 75 601C50 601 25 601 12.5 601L0 601Z" fill="#ff8810"></path><path d="M0 476L12.5 477C25 478 50 480 75 483C100 486 125 490 150 493.7C175 497.3 200 500.7 225 499.3C250 498 275 492 300 489.3C325 486.7 350 487.3 375 489C400 490.7 425 493.3 450 490.2C475 487 500 478 525 477.5C550 477 575 485 600 487.5C625 490 650 487 675 488C700 489 725 494 750 494.8C775 495.7 800 492.3 825 490.3C850 488.3 875 487.7 887.5 487.3L900 487L900 601L887.5 601C875 601 850 601 825 601C800 601 775 601 750 601C725 601 700 601 675 601C650 601 625 601 600 601C575 601 550 601 525 601C500 601 475 601 450 601C425 601 400 601 375 601C350 601 325 601 300 601C275 601 250 601 225 601C200 601 175 601 150 601C125 601 100 601 75 601C50 601 25 601 12.5 601L0 601Z" fill="#ff7b14"></path><path d="M0 520L12.5 522C25 524 50 528 75 528.3C100 528.7 125 525.3 150 524.3C175 523.3 200 524.7 225 525.8C250 527 275 528 300 526.3C325 524.7 350 520.3 375 518.3C400 516.3 425 516.7 450 519C475 521.3 500 525.7 525 527C550 528.3 575 526.7 600 525.8C625 525 650 525 675 524.8C700 524.7 725 524.3 750 523.5C775 522.7 800 521.3 825 520.8C850 520.3 875 520.7 887.5 520.8L900 521L900 601L887.5 601C875 601 850 601 825 601C800 601 775 601 750 601C725 601 700 601 675 601C650 601 625 601 600 601C575 601 550 601 525 601C500 601 475 601 450 601C425 601 400 601 375 601C350 601 325 601 300 601C275 601 250 601 225 601C200 601 175 601 150 601C125 601 100 601 75 601C50 601 25 601 12.5 601L0 601Z" fill="#ff6e19"></path><path d="M0 526L12.5 529.3C25 532.7 50 539.3 75 541.7C100 544 125 542 150 542.3C175 542.7 200 545.3 225 545.2C250 545 275 542 300 539.7C325 537.3 350 535.7 375 533.5C400 531.3 425 528.7 450 532.7C475 536.7 500 547.3 525 552.2C550 557 575 556 600 551.2C625 546.3 650 537.7 675 536.5C700 535.3 725 541.7 750 543.2C775 544.7 800 541.3 825 540C850 538.7 875 539.3 887.5 539.7L900 540L900 601L887.5 601C875 601 850 601 825 601C800 601 775 601 750 601C725 601 700 601 675 601C650 601 625 601 600 601C575 601 550 601 525 601C500 601 475 601 450 601C425 601 400 601 375 601C350 601 325 601 300 601C275 601 250 601 225 601C200 601 175 601 150 601C125 601 100 601 75 601C50 601 25 601 12.5 601L0 601Z" fill="#ff601e"></path><path d="M0 566L12.5 568.8C25 571.7 50 577.3 75 579.8C100 582.3 125 581.7 150 578.2C175 574.7 200 568.3 225 567C250 565.7 275 569.3 300 572.5C325 575.7 350 578.3 375 578.3C400 578.3 425 575.7 450 576C475 576.3 500 579.7 525 580.5C550 581.3 575 579.7 600 578.2C625 576.7 650 575.3 675 575.3C700 575.3 725 576.7 750 578.2C775 579.7 800 581.3 825 579C850 576.7 875 570.3 887.5 567.2L900 564L900 601L887.5 601C875 601 850 601 825 601C800 601 775 601 750 601C725 601 700 601 675 601C650 601 625 601 600 601C575 601 550 601 525 601C500 601 475 601 450 601C425 601 400 601 375 601C350 601 325 601 300 601C275 601 250 601 225 601C200 601 175 601 150 601C125 601 100 601 75 601C50 601 25 601 12.5 601L0 601Z" fill="#ff5024"></path></svg>