<svg id="visual" viewBox="0 0 900 600" width="900" height="600" xmlns="http://www.w3.org/2000/svg" xmlns:xlink="http://www.w3.org/1999/xlink" version="1.1"><path d="M0 143L21.5 142.5C43 142 86 141 128.8 138.5C171.7 136 214.3 132 257.2 128.8C300 125.7 343 123.3 385.8 124C428.7 124.7 471.3 128.3 514.2 133.3C557 138.3 600 144.7 642.8 142.2C685.7 139.7 728.3 128.3 771.2 122.7C814 117 857 117 878.5 117L900 117L900 0L878.5 0C857 0 814 0 771.2 0C728.3 0 685.7 0 642.8 0C600 0 557 0 514.2 0C471.3 0 428.7 0 385.8 0C343 0 300 0 257.2 0C214.3 0 171.7 0 128.8 0C86 0 43 0 21.5 0L0 0Z" fill="#ff8810"></path><path d="M0 109L21.5 110.5C43 112 86 115 128.8 116.7C171.7 118.3 214.3 118.7 257.2 116.2C300 113.7 343 108.3 385.8 108.5C428.7 108.7 471.3 114.3 514.2 115C557 115.7 600 111.3 642.8 110.3C685.7 109.3 728.3 111.7 771.2 114.8C814 118 857 122 878.5 124L900 126L900 0L878.5 0C857 0 814 0 771.2 0C728.3 0 685.7 0 642.8 0C600 0 557 0 514.2 0C471.3 0 428.7 0 385.8 0C343 0 300 0 257.2 0C214.3 0 171.7 0 128.8 0C86 0 43 0 21.5 0L0 0Z" fill="#ff7b14"></path><path d="M0 76L21.5 77.5C43 79 86 82 128.8 80.8C171.7 79.7 214.3 74.3 257.2 75.7C300 77 343 85 385.8 85C428.7 85 471.3 77 514.2 73.2C557 69.3 600 69.7 642.8 73.5C685.7 77.3 728.3 84.7 771.2 85.5C814 86.3 857 80.7 878.5 77.8L900 75L900 0L878.5 0C857 0 814 0 771.2 0C728.3 0 685.7 0 642.8 0C600 0 557 0 514.2 0C471.3 0 428.7 0 385.8 0C343 0 300 0 257.2 0C214.3 0 171.7 0 128.8 0C86 0 43 0 21.5 0L0 0Z" fill="#ff6e19"></path><path d="M0 41L21.5 44C43 47 86 53 128.8 55.7C171.7 58.3 214.3 57.7 257.2 56.2C300 54.7 343 52.3 385.8 50.5C428.7 48.7 471.3 47.3 514.2 47.7C557 48 600 50 642.8 53.5C685.7 57 728.3 62 771.2 61.5C814 61 857 55 878.5 52L900 49L900 0L878.5 0C857 0 814 0 771.2 0C728.3 0 685.7 0 642.8 0C600 0 557 0 514.2 0C471.3 0 428.7 0 385.8 0C343 0 300 0 257.2 0C214.3 0 171.7 0 128.8 0C86 0 43 0 21.5 0L0 0Z" fill="#ff601e"></path><path d="M0 43L21.5 41C43 39 86 35 128.8 30.2C171.7 25.3 214.3 19.7 257.2 18.8C300 18 343 22 385.8 22.8C428.7 23.7 471.3 21.3 514.2 24C557 26.7 600 34.3 642.8 33.8C685.7 33.3 728.3 24.7 771.2 24.8C814 25 857 34 878.5 38.5L900 43L900 0L878.5 0C857 0 814 0 771.2 0C728.3 0 685.7 0 642.8 0C600 0 557 0 514.2 0C471.3 0 428.7 0 385.8 0C343 0 300 0 257.2 0C214.3 0 171.7 0 128.8 0C86 0 43 0 21.5 0L0 0Z" fill="#ff5024"></path></svg>